<?xml version="1.0" encoding="UTF-8"?>
<svg width="40px" height="35px" viewBox="0 0 40 35" version="1.1" xmlns="http://www.w3.org/2000/svg" xmlns:xlink="http://www.w3.org/1999/xlink">
    <title>adaptive-cruise-control</title>
    <g id="Page-1" stroke="none" stroke-width="1" fill="none" fill-rule="evenodd">
        <g id="adaptive-cruise-control" transform="translate(0.000000, -0.000000)" fill="#00152C" fill-rule="nonzero">
            <path d="M20,26 C16.6862915,26 14,23.3137085 14,20 C14,17.76 15.22,15.8 17,14.78 L36.42,3.54 L25.36,22.7 C24.36,24.66 22.34,26 20,26 M20,0 C23.62,0 27,1 29.94,2.64 L25.74,5.06 C24,4.38 22,4 20,4 C11.163444,4 4,11.163444 4,20 C4,24.42 5.78,28.42 8.68,31.3 L8.7,31.3 C9.48,32.08 9.48,33.34 8.7,34.12 C7.92,34.9 6.64,34.9 5.86,34.14 L5.86,34.14 C2.24,30.52 0,25.52 0,20 C0,8.954305 8.954305,0 20,0 M40,20 C40,25.52 37.76,30.52 34.14,34.14 L34.14,34.14 C33.36,34.9 32.1,34.9 31.32,34.12 C30.54,33.34 30.54,32.08 31.32,31.3 L31.32,31.3 C34.22,28.4 36,24.42 36,20 C36,18 35.62,16 34.92,14.2 L37.34,10 C39,13 40,16.36 40,20 Z" id="Shape"></path>
        </g>
    </g>
</svg>