<?xml version="1.0" encoding="UTF-8"?>
<svg width="40px" height="49px" viewBox="0 0 40 49" version="1.1" xmlns="http://www.w3.org/2000/svg" xmlns:xlink="http://www.w3.org/1999/xlink">
    <title>android-auto</title>
    <g id="Page-1" stroke="none" stroke-width="1" fill="none" fill-rule="evenodd">
        <g id="android-auto" fill="#00152C" fill-rule="nonzero">
            <path d="M26,10.005 L24,10.005 L24,8.005 L26,8.005 M16,10.005 L14,10.005 L14,8.005 L16,8.005 M27.06,4.325 L29.68,1.705 C30.06,1.325 30.06,0.685 29.68,0.285 C29.28,-0.095 28.64,-0.095 28.26,0.285 L25.3,3.245 C23.7,2.465 21.9,2.005 20,2.005 C18.08,2.005 16.28,2.465 14.68,3.265 L11.7,0.285 C11.32,-0.095 10.68,-0.095 10.3,0.285 C9.9,0.685 9.9,1.325 10.3,1.705 L12.92,4.325 C9.94,6.525 8,10.005 8,14.005 L32,14.005 C32,10.005 30,6.505 27.06,4.325 M37,16.005 C35.3431458,16.005 34,17.3481458 34,19.005 L34,33.005 C34,34.6618542 35.3431458,36.005 37,36.005 C38.6568542,36.005 40,34.6618542 40,33.005 L40,19.005 C40,17.3481458 38.6568542,16.005 37,16.005 M3,16.005 C1.34314575,16.005 0,17.3481458 0,19.005 L0,33.005 C0,34.6618542 1.34314575,36.005 3,36.005 C4.65685425,36.005 6,34.6618542 6,33.005 L6,19.005 C6,17.3481458 4.65685425,16.005 3,16.005 M8,36.005 C8,37.1095695 8.8954305,38.005 10,38.005 L12,38.005 L12,45.005 C12,46.6618542 13.3431458,48.005 15,48.005 C16.6568542,48.005 18,46.6618542 18,45.005 L18,38.005 L22,38.005 L22,45.005 C22,46.6618542 23.3431458,48.005 25,48.005 C26.6568542,48.005 28,46.6618542 28,45.005 L28,38.005 L30,38.005 C31.1045695,38.005 32,37.1095695 32,36.005 L32,16.005 L8,16.005 L8,36.005 Z" id="Shape"></path>
        </g>
    </g>
</svg>