<?xml version="1.0" encoding="UTF-8"?>
<svg width="33px" height="40px" viewBox="0 0 33 40" version="1.1" xmlns="http://www.w3.org/2000/svg" xmlns:xlink="http://www.w3.org/1999/xlink">
    <title>apple-carplay</title>
    <g id="Page-1" stroke="none" stroke-width="1" fill="none" fill-rule="evenodd">
        <g id="apple-carplay" fill="#00152C" fill-rule="nonzero">
            <path d="M29.69118,35 C28.03118,37.48 26.27118,39.9 23.59118,39.94 C20.91118,40 20.05118,38.36 17.01118,38.36 C13.95118,38.36 13.01118,39.9 10.47118,40 C7.85117998,40.1 5.87117998,37.36 4.19117998,34.94 C0.771179983,30 -1.84882002,20.9 1.67117998,14.78 C3.41117998,11.74 6.53117998,9.82 9.91117998,9.76 C12.47118,9.72 14.91118,11.5 16.49118,11.5 C18.05118,11.5 21.01118,9.36 24.11118,9.68 C25.41118,9.74 29.05118,10.2 31.39118,13.64 C31.21118,13.76 27.05118,16.2 27.09118,21.26 C27.15118,27.3 32.39118,29.32 32.45118,29.34 C32.39118,29.48 31.61118,32.22 29.69118,35 M18.27118,3 C19.73118,1.34 22.15118,0.08 24.15118,0 C24.41118,2.34 23.47118,4.7 22.07118,6.38 C20.69118,8.08 18.41118,9.4 16.17118,9.22 C15.87118,6.92 16.99118,4.52 18.27118,3 Z" id="Shape"></path>
        </g>
    </g>
</svg>