<?xml version="1.0" encoding="UTF-8"?>
<svg width="34px" height="38px" viewBox="0 0 34 38" version="1.1" xmlns="http://www.w3.org/2000/svg" xmlns:xlink="http://www.w3.org/1999/xlink">
    <title>awd</title>
    <g id="Page-1" stroke="none" stroke-width="1" fill="none" fill-rule="evenodd">
        <g id="awd" fill="#00152C" fill-rule="nonzero">
            <path d="M21.788,7.943 C21.788,10.615 19.648,12.782 17,12.782 C14.355,12.782 12.208,10.615 12.208,7.943 C12.208,5.271 14.355,3.105 17,3.105 C19.648,3.105 21.788,5.271 21.788,7.943 Z" id="Path"></path>
            <path d="M21.788,30.14 C21.788,32.811 19.648,34.983 17,34.983 C14.355,34.983 12.208,32.811 12.208,30.14 C12.208,27.468 14.355,25.305 17,25.305 C19.648,25.305 21.788,27.468 21.788,30.14 Z" id="Path"></path>
            <path d="M4.348,0 C2.676,0 1.158,0.355 0,0.94 L0,14.534 C1.158,15.119 2.676,15.474 4.348,15.474 C6.02,15.474 7.538,15.119 8.696,14.534 L8.696,0.94 C7.539,0.355 6.021,0 4.348,0 Z" id="Path"></path>
            <path d="M4.348,22.525 C2.676,22.525 1.158,22.884 8.8817842e-16,23.461 L8.8817842e-16,37.065 C1.158,37.641 2.676,38 4.348,38 C6.02,38 7.538,37.641 8.696,37.064 L8.696,23.461 C7.539,22.885 6.021,22.525 4.348,22.525 Z" id="Path"></path>
            <path d="M29.652,0 C27.984,0 26.463,0.355 25.304,0.94 L25.304,14.534 C26.462,15.119 27.984,15.474 29.652,15.474 C31.321,15.474 32.842,15.119 34,14.534 L34,0.94 C32.843,0.355 31.321,0 29.652,0 Z" id="Path"></path>
            <path d="M29.652,22.525 C27.984,22.525 26.463,22.884 25.304,23.461 L25.304,37.065 C26.463,37.641 27.984,38 29.652,38 C31.321,38 32.842,37.641 34,37.064 L34,23.461 C32.843,22.885 31.321,22.525 29.652,22.525 Z" id="Path"></path>
            <rect id="Rectangle" x="7.227" y="5.718" width="19.544" height="4.04"></rect>
            <rect id="Rectangle" x="7.227" y="28.243" width="19.544" height="4.039"></rect>
            <rect id="Rectangle" x="15.002" y="7.943" width="3.995" height="22.196"></rect>
        </g>
    </g>
</svg>