<?xml version="1.0" encoding="UTF-8"?>
<svg width="10px" height="24px" viewBox="0 0 10 24" version="1.1" xmlns="http://www.w3.org/2000/svg" xmlns:xlink="http://www.w3.org/1999/xlink">
    <title>backup-camera</title>
    <g id="Page-1" stroke="none" stroke-width="1" fill="none" fill-rule="evenodd">
        <g id="backup-camera" transform="translate(0.000000, 0.000000)" fill="#00152C" fill-rule="nonzero">
            <path d="M0.00236616527,9.12626485 C-0.0171338347,12.0542648 0.0848661653,14.9832648 0.272366165,17.9107648 C0.334866165,18.8927648 0.948866165,19.5442648 1.75286617,19.7022648 C3.92586617,20.1262648 6.09936617,20.0732648 8.27186617,19.7022648 C9.07786617,19.5637648 9.69186617,18.8937648 9.75236617,17.9107648 C10.0733662,12.7772648 10.0913662,7.60426485 9.75236617,2.38976485 C9.68936617,1.40826485 9.05486617,0.869264845 8.27186617,0.599264845 C6.23086617,-0.102735155 4.09086617,-0.291235155 1.75286617,0.599264845 C0.976866165,0.894264845 0.346866165,1.40926485 0.272366165,2.38976485 C0.163866165,3.81676485 0.0903661653,5.24476485 0.0468661653,6.67176485 L0.00236616527,9.12626485 Z M1.73236617,6.02776485 C3.28386617,4.87676485 6.83386617,4.87676485 8.38386617,6.02776485 C7.99186617,6.79776485 7.60036617,7.56726485 7.20736617,8.33726485 C5.85236617,8.08576485 4.26386617,8.08576485 2.90936617,8.33726485 C2.51686617,7.56726485 2.12486617,6.79776485 1.73236617,6.02776485 L1.73236617,6.02776485 Z M1.87036617,16.5962648 C2.25136617,16.2237648 2.63136617,15.8512648 3.01186617,15.4792648 C4.32536617,15.6002648 5.86586617,15.6002648 7.17936617,15.4792648 C7.55986617,15.8512648 7.94086617,16.2237648 8.32136617,16.5962648 C6.81736617,17.1552648 3.37436617,17.1552648 1.87036617,16.5962648 L1.87036617,16.5962648 Z M8.62786617,7.68026485 C8.85536617,10.0767648 8.77136617,12.6177648 8.58286617,15.2022648 C8.21286617,14.9607648 7.84286617,14.7177648 7.47186617,14.4762648 C7.47186617,12.7647648 7.47186617,11.0527648 7.47186617,9.34276485 C7.85686617,8.78926485 8.24186617,8.23376485 8.62786617,7.68026485 L8.62786617,7.68026485 Z M1.46936617,7.68026485 C1.85436617,8.23376485 2.23936617,8.78926485 2.62536617,9.34326485 C2.62536617,11.0532648 2.62536617,12.7652648 2.62536617,14.4767648 C2.25486617,14.7182648 1.88436617,14.9612648 1.51336617,15.2027648 C1.32536617,12.6172648 1.24236617,10.0767648 1.46936617,7.68026485 Z" id="Shape"></path>
            <rect id="Rectangle" transform="translate(7.490716, 22.119265) rotate(-19.993387) translate(-7.490716, -22.119265) " x="6.99073324" y="20.6193161" width="1" height="2.99989755"></rect>
            <rect id="Rectangle" transform="translate(2.977496, 22.290194) rotate(19.993387) translate(-2.977496, -22.290194) " x="2.47751339" y="20.7902451" width="1" height="2.99989755"></rect>
        </g>
    </g>
</svg>