<?xml version="1.0" encoding="UTF-8"?>
<svg width="42px" height="30px" viewBox="0 0 42 30" version="1.1" xmlns="http://www.w3.org/2000/svg" xmlns:xlink="http://www.w3.org/1999/xlink">
    <title>fog-lights</title>
    <g id="Page-1" stroke="none" stroke-width="1" fill="none" fill-rule="evenodd">
        <g id="fog-lights" transform="translate(0.000000, -0.000000)" fill="#00152C" fill-rule="nonzero">
            <path d="M27.9531548,1.76121028 L27.9531548,1.71521028 L23.2731548,0.958210285 C16.8101548,0.958210285 13.9121548,6.19821028 13.9121548,12.6602103 L13.9121548,17.3422103 C13.9121548,23.8042103 16.8101548,29.0432103 23.2731548,29.0432103 L27.9531548,28.6802103 L27.9531548,28.6342103 C35.7091548,27.1392103 41.8511548,21.7312103 41.9981548,15.0002103 C42.1421548,8.27121028 35.7091548,3.29721028 27.9531548,1.76121028 Z M26.9561548,25.2702103 C26.9141548,25.2782103 26.8661548,25.2882103 26.8231548,25.2992103 L22.5061548,25.6322103 C20.4101548,25.5832103 19.5121548,24.7142103 18.9601548,23.9572103 C17.9691548,22.5832103 17.4241548,20.3722103 17.4241548,17.9382103 L17.4241548,12.6702103 C17.4241548,9.82221028 17.9691548,7.60921028 18.9601548,6.23821028 C19.4921548,5.50121028 20.3541548,4.66321028 22.3171548,4.56921028 L26.4001548,5.23021028 C26.5751548,5.28221028 26.7491548,5.32721028 26.9301548,5.36321028 C32.5721548,6.48221028 38.6001548,9.96921028 38.4891548,14.9842103 C38.3851548,19.6752103 33.5341548,24.0042103 26.9561548,25.2702103 Z" id="Shape"></path>
            <path d="M11.7541548,3.62621028 C11.8781548,4.16821028 11.3921548,4.73921028 10.6711548,4.90421028 L1.55015485,6.99121028 C0.826154846,7.15721028 0.144154846,6.85321028 0.0201548459,6.31021028 L0.0201548459,6.31021028 C-0.102845154,5.77321028 0.379154846,5.20121028 1.10315485,5.03521028 L10.2241548,2.95021028 C10.9451548,2.78421028 11.6321548,3.08821028 11.7541548,3.62621028 L11.7541548,3.62621028 Z" id="Path"></path>
            <path d="M11.7541548,8.64221028 C11.8781548,9.18421028 11.3921548,9.75521028 10.6711548,9.92021028 L1.55015485,12.0062103 C0.826154846,12.1722103 0.144154846,11.8682103 0.0201548459,11.3252103 L0.0201548459,11.3252103 C-0.102845154,10.7872103 0.379154846,10.2152103 1.10315485,10.0502103 L10.2241548,7.96521028 C10.9441548,7.79921028 11.6311548,8.10421028 11.7541548,8.64221028 L11.7541548,8.64221028 Z" id="Path"></path>
            <path d="M11.7541548,13.6562103 C11.8781548,14.1982103 11.3921548,14.7702103 10.6711548,14.9342103 L1.55015485,17.0202103 C0.826154846,17.1862103 0.144154846,16.8822103 0.0201548459,16.3392103 L0.0201548459,16.3392103 C-0.102845154,15.8012103 0.379154846,15.2292103 1.10315485,15.0642103 L10.2241548,12.9792103 C10.9441548,12.8142103 11.6311548,13.1192103 11.7541548,13.6562103 L11.7541548,13.6562103 Z" id="Path"></path>
            <path d="M11.7541548,18.6712103 C11.8781548,19.2142103 11.3921548,19.7852103 10.6711548,19.9502103 L1.54915485,22.0362103 C0.826154846,22.2012103 0.143154846,21.8972103 0.0191548459,21.3552103 L0.0191548459,21.3552103 C-0.103845154,20.8172103 0.378154846,20.2462103 1.10215485,20.0812103 L10.2231548,17.9942103 C10.9441548,17.8302103 11.6311548,18.1342103 11.7541548,18.6712103 L11.7541548,18.6712103 Z" id="Path"></path>
            <path d="M11.7541548,23.6872103 C11.8781548,24.2302103 11.3921548,24.8002103 10.6711548,24.9662103 L1.54915485,27.0512103 C0.826154846,27.2172103 0.143154846,26.9132103 0.0191548459,26.3702103 L0.0191548459,26.3702103 C-0.103845154,25.8322103 0.378154846,25.2622103 1.10215485,25.0962103 L10.2231548,23.0102103 C10.9441548,22.8452103 11.6311548,23.1492103 11.7541548,23.6872103 L11.7541548,23.6872103 Z" id="Path"></path>
            <path d="M7.10215485,0.00321028492 C7.65715485,0.0482102849 8.06915485,0.513210285 7.91915485,2.35521028 L5.84915485,27.8712103 C5.69915485,29.7212103 5.22315485,30.0412103 4.66915485,29.9962103 L4.66915485,29.9962103 C4.11915485,29.9512103 3.69615485,29.6002103 3.84615485,27.7492103 L5.92015485,2.19321028 C6.06915485,0.351210285 6.55315485,-0.0407897151 7.10215485,0.00321028492 L7.10215485,0.00321028492 Z" id="Path"></path>
        </g>
    </g>
</svg>