<?xml version="1.0" encoding="UTF-8"?>
<svg width="100px" height="64px" viewBox="0 0 100 64" version="1.1" xmlns="http://www.w3.org/2000/svg" xmlns:xlink="http://www.w3.org/1999/xlink">
    <title>forward-collision-warning</title>
    <g id="Page-1" stroke="none" stroke-width="1" fill="none" fill-rule="evenodd">
        <g id="forward-collision-warning" transform="translate(0.000000, 0.000000)" fill="#00152C" fill-rule="nonzero">
            <path d="M51.1700242,35 L51.1700242,35 L51.1100242,35 C50.7972371,34.7618993 50.4623766,34.5542858 50.1100242,34.38 C43.8200242,31.15 33.3700242,30.82 33.3700242,30.82 L19.3700242,20.21 C18.1811374,19.3183218 16.7361343,18.8343159 15.2500242,18.83 L3.7400242,18.83 L3.5700242,32.75 L0.680024198,32.75 C0.225235901,36.2649942 -0.00190415903,39.8057069 1.20225384e-05,43.35 C0.00279117794,47.1064268 0.260046876,50.8583508 0.770024198,54.58 L24.7700242,54.58 C25.5034308,59.7020501 29.8907336,63.5058986 35.0650242,63.5058986 C40.2393148,63.5058986 44.6266176,59.7020501 45.3600242,54.58 L50.6900242,54.58 C51.5040345,54.5811052 52.2174776,54.0357722 52.4300242,53.25 L53.7700242,48.32 C53.9917501,47.5122208 53.6269504,46.6582579 52.8900242,46.26 L53.7400242,41.37 C54.1619645,38.9309701 53.1663954,36.4633532 51.1700242,35 Z M22.2700242,32.87 L7.9300242,32.83 L8.0000242,21.71 L15.1300242,21.71 C15.992083,21.7121588 16.8303777,21.9927595 17.5200242,22.51 L25.2000242,29.14 L22.2700242,32.87 Z M35.0500242,59.12 C31.7363157,59.12 29.0500242,56.4337085 29.0500242,53.12 C29.0500242,49.8062915 31.7363157,47.12 35.0500242,47.12 C38.3637327,47.12 41.0500242,49.8062915 41.0500242,53.12 C41.0500242,56.4337085 38.3637327,59.12 35.0500242,59.12 L35.0500242,59.12 Z" id="Shape"></path>
            <path d="M99.7000242,18.82 L87.4800242,18.82 C85.8290999,18.8298115 84.2376059,19.4372791 83.0000242,20.53 L72.2900242,29.89 C71.8201548,30.3008461 71.2140678,30.5218896 70.5900242,30.51 L63.6800242,32.46 C60.5494221,33.3473372 58.5523054,36.4070224 59.0000242,39.63 L59.8900242,46.1 C59.3867895,46.1787596 58.9409414,46.4681816 58.6641514,46.8957743 C58.3873615,47.3233671 58.3058467,47.8486298 58.4400242,48.34 L59.7800242,53.27 C59.9935538,54.0466614 60.6946227,54.588767 61.5000242,54.6 L68.6600242,54.6 L68.8700242,54.6 L69.0000242,54.6 C69.7490809,59.7117022 74.133731,63.5006624 79.3000242,63.5006624 C84.4663174,63.5006624 88.8509675,59.7117022 89.6000242,54.6 L100.000024,54.6 L99.7000242,18.82 Z M79.2700242,59.12 C75.9563157,59.12 73.2700242,56.4337085 73.2700242,53.12 C73.2700242,49.8062915 75.9563157,47.12 79.2700242,47.12 C82.5837327,47.12 85.2700242,49.8062915 85.2700242,53.12 C85.2700242,56.4337085 82.5837327,59.12 79.2700242,59.12 L79.2700242,59.12 Z M78.9400242,32.83 C80.7600242,30.77 83.9400242,26.49 86.0400242,23.83 C86.9284719,22.679517 88.2869554,21.9892605 89.7400242,21.95 L96.7400242,21.73 L96.7400242,32.73 L78.9400242,32.83 Z" id="Shape"></path>
            <polygon id="Path" points="65.0100242 21.26 50.8400242 0 62.0800242 21.99"></polygon>
            <polygon id="Path" points="57.6400242 25.62 42.4800242 16.92 55.3900242 27.04"></polygon>
            <polygon id="Path" points="82.4500242 8.71 70.8400242 20.1 73.5800242 21.1"></polygon>
        </g>
    </g>
</svg>