<?xml version="1.0" encoding="UTF-8"?>
<svg width="36px" height="44px" viewBox="0 0 36 44" version="1.1" xmlns="http://www.w3.org/2000/svg" xmlns:xlink="http://www.w3.org/1999/xlink">
    <title>heated-seats</title>
    <g id="Page-1" stroke="none" stroke-width="1" fill="none" fill-rule="evenodd">
        <g id="heated-seats" fill="#00152C" fill-rule="nonzero">
            <path d="M10.3249694,43.1626485 L28.4919694,43.1626485 C29.9989694,43.1626485 31.3939694,42.3736485 32.1689694,41.0816485 L35.4629694,35.5926485 C35.4629694,35.5926485 36.8239694,31.6546485 32.8889694,31.9586485 C28.9509694,32.2616485 18.1999694,33.1696485 12.2949694,34.3806485 C12.2949694,34.3806485 13.7209694,21.2346485 9.01196939,14.7136485 C8.35096939,13.7986485 7.30496939,13.2406485 6.17796939,13.1816485 C5.49796939,13.1446485 4.66896939,13.1096485 3.82396939,13.0896485 C1.59096939,13.0396485 -0.182030607,14.9476485 0.0149693931,17.1726485 C0.420969393,21.7276485 1.84396939,30.0356485 6.64196939,40.7646485 C7.29096939,42.2196485 8.73096939,43.1626485 10.3249694,43.1626485" id="Path"></path>
            <path d="M4.16696939,12.0486485 L4.16696939,12.0486485 C6.14596939,12.3866485 8.04396939,11.0466485 8.38196939,9.06564851 L9.20496939,4.26864851 C9.54396939,2.28964851 8.20296939,0.391648506 6.22296939,0.0526485055 C4.24396939,-0.287351494 2.34596939,1.05564851 2.00796939,3.03464851 L1.18496939,7.83364851 C0.844969393,9.81164851 2.18796939,11.7096485 4.16696939,12.0486485" id="Path"></path>
            <path d="M17.8599694,10.8356485 C17.4309694,12.5026485 17.0609694,14.0836485 17.0979694,15.4846485 C17.1209694,15.8546485 17.1359694,16.1116485 17.2269694,16.3626485 C17.3069694,16.6246485 17.4409694,16.9136485 17.6169694,17.2026485 C17.9549694,17.8046485 18.4279694,18.4226485 18.9079694,19.0906485 C19.3869694,19.7626485 19.8999694,20.4686485 20.3119694,21.3406485 C20.5209694,21.7736485 20.6969694,22.2636485 20.7909694,22.8116485 C20.8379694,23.0826485 20.8669694,23.3706485 20.8529694,23.6586485 C20.8369694,23.8346485 20.8289694,23.8696485 20.8159694,24.0136485 C20.7969694,24.1466485 20.7779694,24.2826485 20.7539694,24.3956485 C20.5579694,25.3516485 20.1699694,26.1856485 19.6819694,26.9296485 C19.1829694,27.6676485 18.5929694,28.3236485 17.8599694,28.8306485 C18.0559694,27.9696485 18.2479694,27.1726485 18.3839694,26.3906485 C18.5179694,25.6156485 18.6079694,24.8596485 18.5789694,24.1716485 C18.5839694,24.0796485 18.5729694,24.0116485 18.5689694,23.9386485 C18.5639694,23.8776485 18.5549694,23.7056485 18.5459694,23.6766485 C18.5259694,23.5616485 18.5089694,23.4376485 18.4659694,23.3096485 C18.3889694,23.0476485 18.2509694,22.7666485 18.0879694,22.4666485 C17.7499694,21.8746485 17.2929694,21.2466485 16.8179694,20.5776485 C16.3429694,19.9036485 15.8439694,19.1856485 15.4309694,18.3186485 C15.2369694,17.8736485 15.0509694,17.3916485 14.9609694,16.8516485 C14.8659694,16.2956485 14.9089694,15.7216485 15.0129694,15.2696485 C15.2029694,14.3246485 15.5969694,13.4886485 16.0759694,12.7486485 C16.5709694,12.0126485 17.1499694,11.3526485 17.8599694,10.8356485 Z" id="Path"></path>
            <path d="M23.5119694,10.8356485 C23.0839694,12.5026485 22.7129694,14.0836485 22.7509694,15.4846485 C22.7749694,15.8546485 22.7889694,16.1116485 22.8789694,16.3626485 C22.9609694,16.6246485 23.0939694,16.9136485 23.2709694,17.2026485 C23.6059694,17.8046485 24.0779694,18.4226485 24.5559694,19.0906485 C25.0349694,19.7626485 25.5499694,20.4686485 25.9629694,21.3406485 C26.1709694,21.7736485 26.3469694,22.2636485 26.4419694,22.8116485 C26.4889694,23.0826485 26.5179694,23.3706485 26.5039694,23.6586485 C26.4889694,23.8346485 26.4809694,23.8696485 26.4659694,24.0136485 C26.4459694,24.1466485 26.4289694,24.2826485 26.4049694,24.3956485 C26.2099694,25.3516485 25.8199694,26.1856485 25.3319694,26.9296485 C24.8329694,27.6676485 24.2429694,28.3236485 23.5129694,28.8306485 C23.7069694,27.9696485 23.8969694,27.1726485 24.0339694,26.3906485 C24.1689694,25.6156485 24.2589694,24.8596485 24.2309694,24.1716485 C24.2349694,24.0796485 24.2249694,24.0116485 24.2199694,23.9386485 C24.2159694,23.8776485 24.2049694,23.7056485 24.1969694,23.6766485 C24.1779694,23.5616485 24.1589694,23.4376485 24.1159694,23.3096485 C24.0399694,23.0476485 23.9029694,22.7666485 23.7409694,22.4666485 C23.4039694,21.8746485 22.9469694,21.2466485 22.4719694,20.5776485 C21.9979694,19.9036485 21.4979694,19.1856485 21.0849694,18.3186485 C20.8899694,17.8736485 20.7049694,17.3916485 20.6129694,16.8516485 C20.5179694,16.2956485 20.5609694,15.7216485 20.6659694,15.2696485 C20.8559694,14.3246485 21.2509694,13.4886485 21.7289694,12.7486485 C22.2239694,12.0126485 22.8029694,11.3526485 23.5119694,10.8356485 Z" id="Path"></path>
            <path d="M29.1609694,10.8356485 C28.7329694,12.5026485 28.3619694,14.0836485 28.3999694,15.4846485 C28.4229694,15.8536485 28.4379694,16.1116485 28.5289694,16.3626485 C28.6079694,16.6246485 28.7429694,16.9126485 28.9169694,17.2016485 C29.2549694,17.8036485 29.7259694,18.4226485 30.2049694,19.0906485 C30.6839694,19.7626485 31.1989694,20.4686485 31.6109694,21.3406485 C31.8179694,21.7736485 31.9959694,22.2636485 32.0899694,22.8116485 C32.1369694,23.0826485 32.1649694,23.3706485 32.1519694,23.6586485 C32.1369694,23.8346485 32.1289694,23.8696485 32.1139694,24.0136485 C32.0939694,24.1466485 32.0759694,24.2826485 32.0519694,24.3956485 C31.8559694,25.3516485 31.4659694,26.1856485 30.9779694,26.9296485 C30.4809694,27.6676485 29.8909694,28.3236485 29.1609694,28.8306485 C29.3559694,27.9696485 29.5449694,27.1726485 29.6819694,26.3906485 C29.8159694,25.6156485 29.9059694,24.8596485 29.8769694,24.1716485 C29.8819694,24.0796485 29.8729694,24.0116485 29.8679694,23.9386485 C29.8619694,23.8776485 29.8529694,23.7056485 29.8449694,23.6766485 C29.8249694,23.5616485 29.8069694,23.4376485 29.7639694,23.3096485 C29.6869694,23.0476485 29.5499694,22.7666485 29.3879694,22.4666485 C29.0499694,21.8746485 28.5959694,21.2466485 28.1199694,20.5776485 C27.6439694,19.9036485 27.1459694,19.1856485 26.7329694,18.3186485 C26.5389694,17.8736485 26.3539694,17.3916485 26.2629694,16.8526485 C26.1669694,16.2956485 26.2099694,15.7206485 26.3149694,15.2696485 C26.5049694,14.3236485 26.8999694,13.4886485 27.3779694,12.7486485 C27.8739694,12.0126485 28.4519694,11.3526485 29.1609694,10.8356485 Z" id="Path"></path>
        </g>
    </g>
</svg>