<?xml version="1.0" encoding="UTF-8"?>
<svg width="32px" height="46px" viewBox="0 0 32 46" version="1.1" xmlns="http://www.w3.org/2000/svg" xmlns:xlink="http://www.w3.org/1999/xlink">
    <title>keyless-entry</title>
    <g id="Page-1" stroke="none" stroke-width="1" fill="none" fill-rule="evenodd">
        <g id="keyless-entry" transform="translate(0.000000, 0.000000)" fill="#00152C" fill-rule="nonzero">
            <path d="M15.56,0 C9.48,0 3.98,2.46 -1.77635684e-15,6.44 L2.82,9.26 C6.08,6 10.56,4 15.56,4 C20.56,4 25.04,6 28.28,9.28 L31.1,6.46 C27.14,2.46 21.64,0 15.56,0 M5.66,12.1 L8.48,14.92 C10.3,13.12 12.8,12 15.56,12 C18.32,12 20.82,13.12 22.64,14.92 L25.46,12.1 C22.92,9.56 19.42,8 15.56,8 C11.7,8 8.2,9.56 5.66,12.1 M15.56,30 C13.350861,30 11.56,28.209139 11.56,26 C11.56,23.790861 13.350861,22 15.56,22 C17.769139,22 19.56,23.790861 19.56,26 C19.56,28.209139 17.769139,30 15.56,30 M21.56,18 L9.56,18 C8.4554305,18 7.56,18.8954305 7.56,20 L7.56,44 C7.56,45.1045695 8.4554305,46 9.56,46 L21.56,46 C22.6645695,46 23.56,45.1045695 23.56,44 L23.56,20 C23.56,18.8954305 22.6645695,18 21.56,18 Z" id="Shape"></path>
        </g>
    </g>
</svg>