<?xml version="1.0" encoding="UTF-8"?>
<svg width="34px" height="41px" viewBox="0 0 34 41" version="1.1" xmlns="http://www.w3.org/2000/svg" xmlns:xlink="http://www.w3.org/1999/xlink">
    <title>lane-departure-warning</title>
    <g id="Page-1" stroke="none" stroke-width="1" fill="none" fill-rule="evenodd">
        <g id="lane-departure-warning" transform="translate(0.000000, 0.000000)" fill="#00152C" fill-rule="nonzero">
            <path d="M4.783,20.8145676 C6.26,26.4825676 7.971,32.0855676 9.851,37.6425676 C10.478,39.5085676 12.004,40.4485676 13.64,40.3395676 C18.054,40.0325676 22.227,38.8045676 26.231,36.9655676 C27.713,36.2785676 28.557,34.6655676 28.163,32.7365676 C26.128,22.6545676 23.485,12.6505676 20.13,2.75256755 C19.504,0.889567552 17.995,0.177567552 16.343,0.0615675516 C12.038,-0.238432448 7.807,0.506567552 3.752,3.43556755 C2.406,4.40656755 1.455,5.72956755 1.818,7.65956755 C2.342,10.4745676 2.942,13.2715676 3.596,16.0505676 L4.783,20.8145676 Z M6.525,13.9335676 C8.927,10.9075676 15.78,9.07056755 19.37,10.4915676 C19.012,12.1815676 18.653,13.8705676 18.294,15.5605676 C15.546,15.7765676 12.477,16.5995676 9.991,17.7855676 C8.833,16.5015676 7.673,15.2195676 6.525,13.9335676 L6.525,13.9335676 Z M12.253,34.2735676 C12.796,33.3575676 13.343,32.4415676 13.886,31.5265676 C16.483,31.0845676 19.454,30.2875676 21.936,29.3695676 C22.864,29.8905676 23.79,30.4125676 24.716,30.9335676 C22.103,32.7975676 15.451,34.5805676 12.253,34.2735676 L12.253,34.2735676 Z M20.694,13.5545676 C22.374,18.0685676 23.529,23.0175676 24.5,28.1095676 C23.663,27.8355676 22.822,27.5565676 21.979,27.2835676 C21.093,23.9745676 20.208,20.6685676 19.323,17.3665676 C19.78,16.0985676 20.237,14.8245676 20.694,13.5545676 L20.694,13.5545676 Z M6.866,17.2605676 C7.9,18.1315676 8.931,19.0055676 9.961,19.8765676 C10.846,23.1785676 11.732,26.4855676 12.617,29.7925676 C12.029,30.4485676 11.439,31.1125676 10.846,31.7695676 C9.143,26.8715676 7.668,22.0085676 6.866,17.2605676 Z" id="Shape"></path>
            <rect id="Rectangle" x="0" y="29.9165676" width="2" height="8"></rect>
            <rect id="Rectangle" x="0" y="15.9165676" width="2" height="8"></rect>
            <rect id="Rectangle" x="32" y="29.9165676" width="2" height="8"></rect>
            <rect id="Rectangle" x="32" y="15.9165676" width="2" height="8"></rect>
            <rect id="Rectangle" x="32" y="1.91656755" width="2" height="8"></rect>
        </g>
    </g>
</svg>