<?xml version="1.0" encoding="UTF-8"?>
<svg width="22px" height="24px" viewBox="0 0 22 24" version="1.1" xmlns="http://www.w3.org/2000/svg" xmlns:xlink="http://www.w3.org/1999/xlink">
    <title>maserati-approved-certified-pre-owned</title>
    <g id="Page-1" stroke="none" stroke-width="1" fill="none" fill-rule="evenodd">
        <g id="maserati-approved-certified-pre-owned" fill="#00152C" fill-rule="nonzero">
            <path d="M13.7608421,5.01663158 C13.7608421,6.70421053 12.4092632,8.07284211 10.7368421,8.07284211 C9.06631579,8.07284211 7.71031579,6.70421053 7.71031579,5.01663158 C7.71031579,3.32905263 9.06631579,1.96105263 10.7368421,1.96105263 C12.4092632,1.96105263 13.7608421,3.32905263 13.7608421,5.01663158 Z" id="Path"></path>
            <path d="M13.7608421,19.0357895 C13.7608421,20.7227368 12.4092632,22.0945263 10.7368421,22.0945263 C9.06631579,22.0945263 7.71031579,20.7227368 7.71031579,19.0357895 C7.71031579,17.3482105 9.06631579,15.9821053 10.7368421,15.9821053 C12.4092632,15.9821053 13.7608421,17.3482105 13.7608421,19.0357895 Z" id="Path"></path>
            <path d="M2.74610526,0 C1.69010526,0 0.731368421,0.224210526 0,0.593684211 L0,9.17936842 C0.731368421,9.54884211 1.69010526,9.77305263 2.74610526,9.77305263 C3.80210526,9.77305263 4.76084211,9.54884211 5.49221053,9.17936842 L5.49221053,0.593684211 C4.76147368,0.224210526 3.80273684,0 2.74610526,0 Z" id="Path"></path>
            <path d="M2.74610526,14.2263158 C1.69010526,14.2263158 0.731368421,14.4530526 5.60954791e-16,14.8174737 L5.60954791e-16,23.4094737 C0.731368421,23.7732632 1.69010526,24 2.74610526,24 C3.80210526,24 4.76084211,23.7732632 5.49221053,23.4088421 L5.49221053,14.8174737 C4.76147368,14.4536842 3.80273684,14.2263158 2.74610526,14.2263158 Z" id="Path"></path>
            <path d="M18.7275789,0 C17.6741053,0 16.7134737,0.224210526 15.9814737,0.593684211 L15.9814737,9.17936842 C16.7128421,9.54884211 17.6741053,9.77305263 18.7275789,9.77305263 C19.7816842,9.77305263 20.7423158,9.54884211 21.4736842,9.17936842 L21.4736842,0.593684211 C20.7429474,0.224210526 19.7816842,0 18.7275789,0 Z" id="Path"></path>
            <path d="M18.7275789,14.2263158 C17.6741053,14.2263158 16.7134737,14.4530526 15.9814737,14.8174737 L15.9814737,23.4094737 C16.7134737,23.7732632 17.6741053,24 18.7275789,24 C19.7816842,24 20.7423158,23.7732632 21.4736842,23.4088421 L21.4736842,14.8174737 C20.7429474,14.4536842 19.7816842,14.2263158 18.7275789,14.2263158 Z" id="Path"></path>
            <rect id="Rectangle" x="4.56442105" y="3.61136842" width="12.3435789" height="2.55157895"></rect>
            <rect id="Rectangle" x="4.56442105" y="17.8376842" width="12.3435789" height="2.55094737"></rect>
            <rect id="Rectangle" x="9.47494737" y="5.01663158" width="2.52315789" height="14.0185263"></rect>
        </g>
    </g>
</svg>