<?xml version="1.0" encoding="UTF-8"?>
<svg width="36px" height="44px" viewBox="0 0 36 44" version="1.1" xmlns="http://www.w3.org/2000/svg" xmlns:xlink="http://www.w3.org/1999/xlink">
    <title>memory-seats</title>
    <g id="Page-1" stroke="none" stroke-width="1" fill="none" fill-rule="evenodd">
        <g id="memory-seats" fill="#00152C" fill-rule="nonzero">
            <path d="M10.3249694,43.1626485 L28.4919694,43.1626485 C29.9989694,43.1626485 31.3939694,42.3736485 32.1689694,41.0816485 L35.4629694,35.5926485 C35.4629694,35.5926485 36.8239694,31.6546485 32.8889694,31.9586485 C28.9509694,32.2616485 18.1999694,33.1696485 12.2949694,34.3806485 C12.2949694,34.3806485 13.7209694,21.2346485 9.01196939,14.7136485 C8.35096939,13.7986485 7.30496939,13.2406485 6.17796939,13.1816485 C5.49796939,13.1446485 4.66896939,13.1096485 3.82396939,13.0896485 C1.59096939,13.0396485 -0.182030607,14.9476485 0.0149693931,17.1726485 C0.420969393,21.7276485 1.84396939,30.0356485 6.64196939,40.7646485 C7.29096939,42.2196485 8.73096939,43.1626485 10.3249694,43.1626485" id="Path"></path>
            <path d="M4.16696939,12.0486485 L4.16696939,12.0486485 C6.14596939,12.3866485 8.04396939,11.0466485 8.38196939,9.06564851 L9.20496939,4.26864851 C9.54396939,2.28964851 8.20296939,0.391648506 6.22296939,0.0526485055 C4.24396939,-0.287351494 2.34596939,1.05564851 2.00796939,3.03464851 L1.18496939,7.83364851 C0.844969393,9.81164851 2.18796939,11.7096485 4.16696939,12.0486485" id="Path"></path>
            <path d="M23.6339694,10.6006485 C18.6629694,10.6006485 14.6339694,14.6296485 14.6339694,19.6006485 C14.6339694,24.5716485 18.6629694,28.6006485 23.6339694,28.6006485 C28.6039694,28.6006485 32.6339694,24.5716485 32.6339694,19.6006485 C32.6339694,14.6296485 28.6039694,10.6006485 23.6339694,10.6006485 Z M25.3219694,24.3806485 C25.3219694,25.3136485 24.5649694,26.0686485 23.6339694,26.0686485 C22.7029694,26.0686485 21.9459694,25.3136485 21.9459694,24.3806485 L21.9459694,19.3196485 C21.9459694,18.3876485 22.7029694,17.6316485 23.6339694,17.6316485 C24.5649694,17.6316485 25.3219694,18.3876485 25.3219694,19.3196485 L25.3219694,24.3806485 Z M23.6339694,16.5066485 C22.7029694,16.5066485 21.9459694,15.7526485 21.9459694,14.8206485 C21.9459694,13.8876485 22.7029694,13.1316485 23.6339694,13.1316485 C24.5649694,13.1316485 25.3219694,13.8876485 25.3219694,14.8206485 C25.3219694,15.7526485 24.5649694,16.5066485 23.6339694,16.5066485 Z" id="Shape"></path>
        </g>
    </g>
</svg>