<?xml version="1.0" encoding="UTF-8"?>
<svg width="40px" height="33px" viewBox="0 0 40 33" version="1.1" xmlns="http://www.w3.org/2000/svg" xmlns:xlink="http://www.w3.org/1999/xlink">
    <title>navigation-system</title>
    <g id="Page-1" stroke="none" stroke-width="1" fill="none" fill-rule="evenodd">
        <g id="navigation-system" transform="translate(0.000000, 0.000000)" fill="#00152C" fill-rule="nonzero">
            <g id="Group">
                <path d="M20.484,30.08 C20.446,30.075 20.369,30.071 20.255,30.071 L20.1,30.071 L20.1,30.516 L20.275,30.516 C20.4,30.516 20.485,30.509 20.528,30.492 C20.569,30.476 20.603,30.45 20.627,30.416 C20.65,30.381 20.663,30.34 20.663,30.293 C20.663,30.235 20.646,30.189 20.612,30.152 C20.579,30.114 20.537,30.092 20.484,30.08 Z" id="Path"></path>
                <path d="M36.415,0 L27.623,0 L3.586,0 C1.987,0 0,1.522 0,3.382 L0,29.62 C0,31.479 1.987,33 3.586,33 L9.105,33 L36.416,33 C38.015,33 40.001,31.479 40.001,29.62 L40.001,3.382 C40,1.522 38.014,0 36.415,0 Z M15.929,1.838 L24.537,1.838 L24.537,2.876 L15.929,2.876 L15.929,1.838 Z M34.809,28.099 L5.19,28.099 L5.19,4.589 L34.808,4.589 L34.808,28.099 L34.809,28.099 Z" id="Shape"></path>
            </g>
            <path d="M22,19.002 L22,16.502 L18,16.502 L18,19.502 L16,19.502 L16,15.502 C16,14.95 16.447,14.502 17,14.502 L22,14.502 L22,12.002 L25.499,15.502 M29.708,15.792 L20.71,6.792 L20.7,6.792 C20.31,6.402 19.679,6.402 19.29,6.792 L10.292,15.792 C9.903,16.182 9.903,16.822 10.292,17.212 L19.29,26.211 C19.68,26.591 20.311,26.601 20.71,26.211 L29.708,17.212 C30.098,16.822 30.098,16.182 29.708,15.792 Z" id="Shape"></path>
        </g>
    </g>
</svg>