<?xml version="1.0" encoding="UTF-8"?>
<svg width="41px" height="31px" viewBox="0 0 41 31" version="1.1" xmlns="http://www.w3.org/2000/svg" xmlns:xlink="http://www.w3.org/1999/xlink">
    <title>parking-assist</title>
    <g id="Page-1" stroke="none" stroke-width="1" fill="none" fill-rule="evenodd">
        <g id="parking-assist" transform="translate(-0.000000, 0.000000)">
            <path d="M30.367,22.828 C33.711,19.529 36.917,16.088 40.026,12.555 C41.069,11.369 41.11,9.933 40.378,8.843 C38.395,5.895 35.868,3.49 32.983,1.446 C31.912,0.688 30.456,0.751 29.27,1.798 C23.082,7.261 17.195,13.109 11.664,19.41 C10.622,20.595 10.73,21.927 11.313,23.121 C12.832,26.235 15.046,28.878 18.709,30.519 C19.923,31.065 21.222,31.195 22.42,30.168 C24.16,28.67 25.863,27.133 27.532,25.564 L30.367,22.828 Z M24.889,24.382 C21.823,23.927 17.797,19.9 17.344,16.834 C18.661,16.403 19.978,15.975 21.298,15.548 C22.55,17.37 24.354,19.175 26.176,20.426 C25.747,21.745 25.318,23.063 24.889,24.382 L24.889,24.382 Z M36.722,12.233 C35.866,12.225 35.013,12.216 34.16,12.206 C32.807,10.579 31.06,8.83 29.431,7.477 C29.421,6.623 29.411,5.769 29.404,4.913 C31.744,5.986 35.649,9.893 36.722,12.233 L36.722,12.233 Z M18.941,14.684 C21.403,11.706 24.378,8.918 27.525,6.2 C27.671,6.893 27.814,7.589 27.962,8.284 C26.021,10.226 24.078,12.169 22.14,14.108 C21.075,14.3 20.006,14.494 18.941,14.684 L18.941,14.684 Z M27.061,22.805 C27.253,21.742 27.446,20.673 27.637,19.607 C29.575,17.668 31.519,15.724 33.459,13.784 C34.154,13.93 34.85,14.074 35.544,14.222 C32.826,17.367 30.038,20.344 27.061,22.805 Z" id="Shape" fill="#00152C" fill-rule="nonzero"></path>
            <g id="Group" transform="translate(-0.000000, 0.000000)">
                <path d="M2.912,3.98 C3.298,3.386 3.687,2.794 4.073,2.203 C2.704,2.102 1.348,2.033 -8.8817842e-16,1.981 L-8.8817842e-16,3.98 C0.971,3.98 1.941,3.98 2.912,3.98 Z" id="Path"></path>
                <path d="M4.073,13.514 C3.687,12.919 3.298,12.327 2.912,11.735 C1.941,11.735 0.971,11.735 0,11.735 L0,13.733 C1.348,13.683 2.704,13.614 4.073,13.514 Z" id="Path"></path>
                <path d="M4.517,4.447 C4.711,6.549 4.711,9.014 4.517,11.115 C5.112,11.724 5.707,12.334 6.305,12.943 C7.199,10.536 7.199,5.027 6.305,2.621 C5.707,3.229 5.112,3.838 4.517,4.447 Z" id="Path"></path>
                <path d="M11.273,2.699 C11.052,1.409 9.981,0.428 8.407,0.33 C5.613,0.155 2.809,0.059 8.8817842e-16,-3.55271368e-15 L8.8817842e-16,1.98 C1.348,2.032 2.704,2.101 4.073,2.202 C3.687,2.794 3.298,3.386 2.912,3.979 C1.941,3.979 0.971,3.979 8.8817842e-16,3.979 L8.8817842e-16,11.734 C0.971,11.734 1.94,11.734 2.912,11.734 C3.298,12.327 3.687,12.919 4.073,13.513 C2.704,13.613 1.348,13.682 8.8817842e-16,13.732 L8.8817842e-16,15.871 C2.803,15.801 5.605,15.68 8.407,15.5 C9.979,15.398 11.021,14.416 11.273,13.13 C11.952,9.653 11.867,6.175 11.273,2.699 Z M6.304,12.943 C5.707,12.334 5.112,11.724 4.516,11.115 C4.71,9.014 4.71,6.549 4.516,4.447 C5.111,3.839 5.706,3.229 6.304,2.621 C7.198,5.027 7.198,10.535 6.304,12.943 Z" id="Shape" fill="#00152C" fill-rule="nonzero"></path>
            </g>
        </g>
    </g>
</svg>