<?xml version="1.0" encoding="UTF-8"?>
<svg width="28px" height="40px" viewBox="0 0 28 40" version="1.1" xmlns="http://www.w3.org/2000/svg" xmlns:xlink="http://www.w3.org/1999/xlink">
    <title>premium-audio</title>
    <g id="Page-1" stroke="none" stroke-width="1" fill="none" fill-rule="evenodd">
        <g id="premium-audio" fill="#00152C" fill-rule="nonzero">
            <path d="M14,20 C10.6862915,20 8,22.6862915 8,26 C8,29.3137085 10.6862915,32 14,32 C17.3137085,32 20,29.3137085 20,26 C20,22.6862915 17.3137085,20 14,20 M14,36 C8.4771525,36 4,31.5228475 4,26 C4,20.4771525 8.4771525,16 14,16 C19.5228475,16 24,20.4771525 24,26 C24,31.5228475 19.5228475,36 14,36 M14,4 C16.209139,4 18,5.790861 18,8 C18,10.209139 16.209139,12 14,12 C11.78,12 10,10.2 10,8 C10,5.78 11.78,4 14,4 M24,0 L4,0 C1.78,0 0,1.78 0,4 L0,36 C0,38.209139 1.790861,40 4,40 L24,40 C26.209139,40 28,38.209139 28,36 L28,4 C28,1.78 26.2,0 24,0 Z" id="Shape"></path>
        </g>
    </g>
</svg>