<?xml version="1.0" encoding="UTF-8"?>
<svg width="39px" height="40px" viewBox="0 0 39 40" version="1.1" xmlns="http://www.w3.org/2000/svg" xmlns:xlink="http://www.w3.org/1999/xlink">
    <title>satellite-radio</title>
    <g id="Page-1" stroke="none" stroke-width="1" fill="none" fill-rule="evenodd">
        <g id="satellite-radio" fill="#00152C" fill-rule="nonzero">
            <g id="Group">
                <path d="M31.06175,20.112 C23.44175,16.407 16.44375,23.54 20.10575,31.057 L31.06175,20.112 Z" id="Path"></path>
                <path d="M27.11575,27.142 C27.79775,26.453 27.57075,25.13 26.61575,24.183 L24.17075,26.628 C25.12175,27.593 26.44375,27.823 27.11575,27.142 Z" id="Path"></path>
                <path d="M12.67075,17.841 C11.25275,16.407 11.25275,14.109 12.67075,12.659 L12.67075,12.659 C14.10175,11.261 16.41475,11.261 17.81875,12.659 L21.45575,16.296 C22.87775,17.726 22.87775,20.034 21.45575,21.466 L21.45575,21.466 C20.02775,22.884 17.72875,22.884 16.30375,21.466 L12.67075,17.841 Z" id="Path"></path>
                <path d="M11.15175,11.155 C12.57375,9.714 14.87275,9.714 16.30375,11.155 L13.14775,8.004 C11.72975,6.586 9.43275,6.586 8.00675,8.004 C6.58075,9.414 6.58075,11.714 8.00675,13.151 L11.15175,16.296 C9.72975,14.89 9.72975,12.573 11.15175,11.155 Z" id="Path"></path>
                <g id="Path">
                    <path d="M18.37175,10.306 C17.87675,9.829 17.87675,9.018 18.37175,8.516 L26.52675,0.366 C27.02075,-0.122 27.81375,-0.122 28.31475,0.366 L33.63175,5.686 C34.12175,6.189 34.12175,6.978 33.63175,7.465 L25.45575,15.626 C24.97475,16.124 24.18575,16.124 23.68875,15.626 L18.37175,10.306 Z"></path>
                    <path d="M0.37575,28.305 C-0.12525,27.826 -0.12525,27.022 0.37575,26.527 L8.52175,18.367 C9.00875,17.877 9.83075,17.877 10.30675,18.367 L15.62375,23.702 C16.12475,24.173 16.12475,24.976 15.62375,25.472 L7.45675,33.631 C6.97075,34.122 6.16775,34.122 5.67775,33.631 L0.37575,28.305 Z"></path>
                </g>
            </g>
            <path d="M30.62375,25.999 C30.86275,26.003 31.05775,26.097 31.20075,26.27 C31.47975,26.602 31.52575,27.165 31.50975,27.418 C31.41775,29.016 30.60775,30.446 29.34175,31.257 C28.66675,31.685 27.90075,31.913 27.12075,31.913 C27.03975,31.913 26.95875,31.907 26.87875,31.904 C26.62775,31.888 26.16175,31.728 25.90775,31.425 C25.75775,31.245 25.69675,31.04 25.71975,30.798 C25.73375,30.669 25.79175,30.562 25.89075,30.478 C26.11975,30.281 26.46875,30.265 26.57075,30.265 C26.62675,30.265 26.68075,30.272 26.72975,30.277 C26.86075,30.295 26.99575,30.306 27.12575,30.306 C27.64675,30.306 28.14075,30.158 28.59575,29.868 C29.57275,29.247 30.13875,28.05 30.03675,26.819 C30.02375,26.651 30.13475,26.376 30.29075,26.19 C30.39775,26.069 30.51775,25.999 30.61875,25.999 L30.62375,25.999 Z" id="Path"></path>
            <path d="M34.35675,26.05 C34.37775,26.05 34.39875,26.051 34.41875,26.052 L34.45775,26.056 C34.67075,26.072 34.88275,26.191 35.03975,26.38 C35.17675,26.546 35.25975,26.751 35.27075,26.956 L35.27075,26.967 L35.26675,27.015 C35.26375,27.09 35.25275,27.247 35.23075,27.56 C35.00475,30.537 33.46575,33.206 31.11075,34.707 C29.82775,35.525 28.36775,35.955 26.88575,35.955 C26.74975,35.955 26.61475,35.952 26.48075,35.943 L25.99975,35.921 L25.99175,35.916 C25.87475,35.894 25.71375,35.779 25.60275,35.648 C25.44275,35.456 25.35375,35.201 25.36075,34.954 L25.36075,34.901 C25.36875,34.682 25.44475,34.493 25.57575,34.383 C25.65175,34.321 25.74575,34.284 25.84675,34.284 C25.87975,34.284 25.91075,34.287 25.94475,34.296 L26.44275,34.335 C26.59075,34.342 26.73975,34.35 26.88775,34.35 C28.10875,34.35 29.31175,33.995 30.36675,33.323 C32.38475,32.038 33.65975,29.745 33.77675,27.19 L33.79775,26.706 C33.78375,26.49 33.82375,26.342 33.92675,26.227 C34.02975,26.11 34.18175,26.05 34.35675,26.05 Z" id="Path"></path>
            <path d="M38.15775,26.103 C38.17775,26.103 38.19675,26.104 38.21475,26.105 C38.43575,26.122 38.62975,26.227 38.77975,26.407 C38.91775,26.573 38.99675,26.779 38.99975,26.987 L38.99975,26.997 L38.99875,27.014 C38.99775,27.052 38.98975,27.187 38.96275,27.57 C38.64475,31.976 36.37275,35.937 32.88275,38.158 C30.99375,39.36 28.84175,39.999 26.65575,39.999 C26.45775,39.999 26.25775,39.995 26.05875,39.984 L25.61075,39.96 C25.47775,39.941 25.33575,39.849 25.22675,39.716 C25.07575,39.534 24.99375,39.288 24.99875,39.042 C25.00675,38.78 25.08775,38.565 25.22675,38.438 C25.30175,38.37 25.38775,38.333 25.47775,38.333 C25.49575,38.333 25.51475,38.334 25.53475,38.341 L25.96275,38.37 C26.19475,38.385 26.42975,38.394 26.66175,38.394 C28.58175,38.394 30.47575,37.834 32.13875,36.773 C35.24275,34.794 37.24775,31.273 37.49975,27.35 L37.53075,26.821 C37.52775,26.602 37.58975,26.419 37.71475,26.286 C37.82975,26.166 37.98675,26.103 38.15775,26.103 Z" id="Path"></path>
        </g>
    </g>
</svg>