<?xml version="1.0" encoding="UTF-8"?>
<svg width="36px" height="36px" viewBox="0 0 36 36" version="1.1" xmlns="http://www.w3.org/2000/svg" xmlns:xlink="http://www.w3.org/1999/xlink">
    <title>side-impact-airbags</title>
    <g id="Page-1" stroke="none" stroke-width="1" fill="none" fill-rule="evenodd">
        <g id="side-impact-airbags" fill="#00152C" fill-rule="nonzero">
            <path d="M26.6,10.3018349 C29.2,10.3018349 31.3,8.20183493 31.3,5.60183493 C31.3,3.00183493 29.2,0.90183493 26.6,0.90183493 C24,0.90183493 21.9,3.00183493 21.9,5.60183493 C21.9,8.20183493 24,10.3018349 26.6,10.3018349 Z" id="Path"></path>
            <path d="M13.8,21.5018349 C12.7,21.1018349 11.6,20.8018349 10.6,20.4018349 C9.5,20.0018349 8.2,20.6018349 7.6,21.6018349 C5.5,25.0018349 3.5,28.4018349 1.4,31.7018349 C-0.4,34.6018349 4.2,37.3018349 6,34.4018349 C7.7,31.6018349 9.4,28.9018349 11.1,26.1018349 C13,26.7018349 14.8,27.4018349 16.7,28.0018349 C15.9,26.5018349 15.1,25.0018349 14.2,23.4018349 C13.9,22.8018349 13.7,22.1018349 13.8,21.5018349 Z" id="Path"></path>
            <path d="M26.3,11.5018349 C25.1,10.8018349 23.3,11.2018349 22.7,12.5018349 C21.5,14.8018349 20.3,17.1018349 19.2,19.4018349 C19.5,19.6018349 19.7,19.9018349 19.9,20.3018349 L21.8,23.8018349 C22,24.1018349 22.2,24.5018349 22.4,24.8018349 C24.1,21.6018349 25.7,18.3018349 27.4,15.1018349 C27.5,14.9018349 27.6,14.6018349 27.6,14.4018349 C27.8,13.6018349 27.6,13.0018349 27.3,12.4018349 C27,12.0018349 26.7,11.7018349 26.3,11.5018349 Z" id="Path"></path>
            <path d="M15.7,22.6018349 C18,26.9018349 19.9,30.4018349 22.2,34.7018349 C22.5,35.2018349 23,35.5018349 23.4,35.5018349 C24.4,35.5018349 25.5,34.4018349 24.8,33.2018349 C22.5,28.9018349 20.6,25.4018349 18.3,21.1018349 C18,20.6018349 17.6,20.3018349 17.1,20.3018349 C16.1,20.3018349 15,21.4018349 15.7,22.6018349 Z" id="Path"></path>
            <path d="M33.4,9.10183493 C31.3,10.3018349 31.7,10.1018349 29.6,11.2018349 C29.3,11.3018349 29.2,11.5018349 29,11.7018349 C29.2,12.3018349 29.3,12.9018349 29.2,13.5018349 C29.6,14.0018349 30.3,14.2018349 31.1,13.8018349 C33.1,12.6018349 32.8,12.8018349 34.9,11.7018349 C36.6,10.7018349 35.1,8.10183493 33.4,9.10183493 Z" id="Path"></path>
            <path d="M17.8,8.90183493 C17.8,13.8018349 13.8,17.8018349 8.9,17.8018349 C4,17.8018349 0,13.8018349 0,8.90183493 C0,4.00183493 4,0.00183492992 8.9,0.00183492992 C13.8,-0.0981650701 17.8,3.90183493 17.8,8.90183493 Z" id="Path"></path>
        </g>
    </g>
</svg>