<?xml version="1.0" encoding="UTF-8"?>
<svg width="44px" height="44px" viewBox="0 0 44 44" version="1.1" xmlns="http://www.w3.org/2000/svg" xmlns:xlink="http://www.w3.org/1999/xlink">
    <title>Shape</title>
    <g id="Page-1" stroke="none" stroke-width="1" fill="none" fill-rule="evenodd">
        <g id="sunroof" transform="translate(0.000000, 0.000000)" fill="#00152C" fill-rule="nonzero">
            <path d="M5.1,35.98 L7.92,38.8 L11.52,35.22 L8.68,32.38 M20,43.8 C20.64,43.8 24,43.8 24,43.8 L24,37.9 L20,37.9 M22,9.9 C15.372583,9.9 10,15.272583 10,21.9 C10,28.527417 15.372583,33.9 22,33.9 C25.1825979,33.9 28.2348448,32.6357179 30.4852814,30.3852814 C32.7357179,28.1348448 34,25.0825979 34,21.9 C34,15.26 28.62,9.9 22,9.9 M38,23.9 L44,23.9 L44,19.9 L38,19.9 M32.48,35.22 L36.08,38.8 L38.9,35.98 L35.32,32.38 M38.9,7.82 L36.08,5 L32.48,8.58 L35.32,11.42 M24,0 L20,0 L20,5.9 L24,5.9 M6,19.9 L0,19.9 L0,23.9 L6,23.9 M11.52,8.58 L7.92,5 L5.1,7.82 L8.68,11.42 L11.52,8.58 Z" id="Shape"></path>
        </g>
    </g>
</svg>