<?xml version="1.0" encoding="UTF-8"?><svg id="Layer_2" xmlns="http://www.w3.org/2000/svg" viewBox="0 0 1538.83 296.81"><defs><style>.cls-1{fill:#f2eadf;stroke-width:0px;}</style></defs><g id="Layer_1-2"><path class="cls-1" d="M76.38,296.1c-24.18-.04-48.36-.09-72.54-.13-.22-4.2-.43-8.39-.62-12.58C-.32,206.69-.68,129.65,1.65,52.97,2.87,13.12,14.89,1.47,54.81,1.47c32.85,0,65.9-.14,98.85-.18,9.44-.01,16.79,7.65,16.46,17.11-1,29.53-1.69,59.06-2.08,88.61-.07,6.42-5.33,11.63-11.77,11.63-21,0-42.54.53-63,.03-16.2-.4-20.57,4.38-20.35,20.15.14,9.95.29-25.41.08-15.25-.19,9.44-2.79,23.7,6.84,23.57,24.45-.31,48.91-.17,73.36-.12,5.61.01,10.16,4.55,10.17,10.14.02,7.89.04,11.83.1,19.71.04,5.58-4.43,10.11-10.01,10.14-21.1.13-42.22.27-63.33-.32-11.06-1.53-17.7,6.68-16.83,17.05,2.45,29.23,1.65,61.58,3.08,92.35Z"/><path class="cls-1" d="M335.03,183.25c10.35,0,15.53,0,25.88,0,.29,37.55.92,75.1,1.9,112.64-57.17-.06-114.34-.13-171.52-.21-3.56-95.94-3.64-191.89-.25-287.84.11-3.05,2.67-5.52,5.71-5.52,20.67-.03,41.34-.06,62.01-.08,3.04,0,5.42,2.46,5.32,5.51-.1,3.24-.21,6.49-.3,9.74-2.09,72.95-2.52,145.9-.9,218.87.14,5.84,1.13,13.3,4.79,17,3.05,3.09,11.25,3.52,15.88,1.82,3.55-1.3,7.12-7.69,7.2-11.95.1-5.3.12-10.61.1-15.92-.11-24.17,20.13-44.04,44.2-44.04Z"/><path class="cls-1" d="M465.08,296.69c-25.38-.02-50.76-.04-76.14-.07-2.36-96.44-2.42-192.89-.18-289.34.07-3.05,2.6-5.53,5.64-5.53,21.71-.02,43.43-.04,65.14-.06,3.04,0,5.45,2.47,5.39,5.52-1.79,96.49-1.75,192.98.14,289.47Z"/><path class="cls-1" d="M706.67,183.57c7.06-41.87,14.4-83.89,21.35-125.59,1.81-10.86,3.4-21.99,5.83-32.7,2.84-12.5,12.85-23.7,26.42-23.95,17.78-.32,36.52-.39,54.76-.26,3.03.02,5.5,2.48,5.51,5.53.3,96.33.3,192.67-.02,289-22.72,0-45.43,0-68.15,0-.03-30.01-.06-60.02-.07-90.03,0-1.06-.79-1.94-1.84-2.07h0c-1.07-.13-2.06.58-2.29,1.64-.89,4.21-3.04,14.53-4.01,20.35-3.37,20.08-6.83,40.23-9.53,60.34-1.1,8.22-4.06,11.35-12.52,10.96-11.7-.32-23.34-.32-35.04-.22-5.08.04-9.46-3.63-10.34-8.66-4.79-27.5-9.56-55-14.28-82.51-.18-1.07-1.15-1.81-2.23-1.72-.02,0-.03,0-.05,0-1.08.09-1.91.99-1.9,2.08.1,29.96.25,59.93.46,89.89-22.97,0-45.94-.02-68.91-.02-1.1-96.15-1.12-192.3-.07-288.44.04-3.04,2.52-5.49,5.54-5.53,19.75-.28,40.14-1.41,59.24.55,13.82,1.42,21.5,15.64,23.29,28.54,6.33,45.83,15.51,93.45,23.5,140.13.73,4.28,1.75,8.51,2.63,12.76,1.53-.03,1.19-.02,2.72-.05Z"/><path class="cls-1" d="M1042.85,296.13c1.7-96.73,1.73-193.47.09-290.2-.05-2.7,1.83-5.12,4.49-5.45.21-.03.42-.04.63-.04,45.42.01,90.85-.14,136.27.47,22.36-.13,34.48,11.64,34.9,33.94,1.46,77.53,2.15,156.58.13,234.88.73,14.33-7.89,25.76-22.57,25.98-51.31.73-102.63.43-153.94.43ZM1111.13,256.17c8.09,0,14.81-.1,21.26-.02,14.43.19,20.98-4.24,20.44-19.64.47-27.43.78-54.85.64-82.29-.04-7.74,3.62-26.35-2.76-33.03-6.62-6.93-28.15-3.04-35.99-2.82-.74.02-1.47.77-2.75,1.49.16,45.44-.12,90.87-.84,136.31Z"/><path class="cls-1" d="M1535.04,295.34c-24.54.05-49.08.09-73.63.13-1.6-18.86-3.43-37.7-5.35-56.53-10.08.01-20.16.02-30.25.03-2.5,18.81-5.13,37.61-7.87,56.39-24.32.04-48.64.08-72.95.11,3.13-25.18,6.03-50.38,8.85-75.6,7.03-64.07,12.73-128.23,16.54-192.57.48-20.04,6.84-27.03,26.98-26.63,30.33.59,61.93.54,92.6-.02,11.94-.22,20.05,6.1,21.37,18.16,7.22,56.07,13.47,112.37,17.75,168.59,2.73,35.85,4.59,71.92,5.96,107.93ZM1440.78,112.99s-.04,0-.06,0c-1.71.1-3.08,1.43-3.23,3.13-2.2,25.33-3.21,50.84-5.99,76.12-.45,4.12,2.54,7.73,6.46,8.49,15.39,3,15.55-9.9,14.34-21.56-2.15-20.79-4.4-42.37-7.85-63.25-.29-1.76-1.88-3.03-3.67-2.93Z"/><path class="cls-1" d="M1014.04,5.92c.49,32.58.83,65.16,1.02,97.74.04,7.88-6.35,14.27-14.23,14.24-13.9-.04-27.8-.09-41.71.05-8.49.07-29.03-4.25-36.18,2.79-7.24,7.13-2.94,28.65-3.01,36.99-.03,3.1.18,6.22-.04,9.3-.75,10.7,3.93,15.25,14.83,15.07,21.65-.36,43.45-.15,65.14-.13,1.05,0,2.11,0,3.17,0,5.75,0,10.39,4.66,10.36,10.4-.04,7.7-.06,11.55-.11,19.25-.04,5.74-4.74,10.4-10.48,10.4-21.66,0-43.33,0-64.99.03-13.57-.87-18.48,5.47-18.28,18.47.18,11.14,5.11,15.9,16.12,15.8,26.24-.19,52.48-.12,78.72-.11-.16,13.44-.35,26.88-.57,40.31-7.89,0-15.26,0-22.63.01-38.36.02-76.75.16-115.12-.08-18.49.39-28.78-9.37-28.47-27.88,1.26-75.5.06-153.34.17-230.01-.08-25.12,11.06-38.54,36.91-38,41.02-.49,82.04-.27,123.05-.23.44,0,.88.03,1.34.08,2.79.3,4.93,2.69,4.97,5.5Z"/><path class="cls-1" d="M1247.99,295.63c2.95-96.2,3.01-192.41.18-288.62-.09-3.05,2.29-5.52,5.33-5.51,21.78.03,43.55.05,65.33.08,3.04,0,5.6,2.48,5.71,5.52,3.27,96.14,3.21,192.29-.21,288.43-25.44.03-50.89.07-76.33.1Z"/></g></svg>